<svg xmlns="http://www.w3.org/2000/svg" xmlns:xlink="http://www.w3.org/1999/xlink" width="500" zoomAndPan="magnify" viewBox="0 0 375 374.999991" height="500" preserveAspectRatio="xMidYMid meet" version="1.0"><defs><g/></defs><g fill="#000000" fill-opacity="1"><g transform="translate(63.373329, 224.624971)"><g><path d="M 3.578125 0 L 3.578125 -80.84375 L 35.953125 -80.84375 L 35.953125 -65.125 L 19.859375 -65.125 L 19.859375 -52.234375 L 35.109375 -52.234375 L 35.109375 -36.703125 L 19.859375 -36.703125 L 19.859375 0 Z M 3.578125 0 "/></g></g></g><g fill="#000000" fill-opacity="1"><g transform="translate(95.743879, 224.624971)"><g><path d="M 3.203125 -73.5 L 3.203125 -84.984375 L 19.671875 -84.984375 L 19.671875 -73.5 Z M 3.203125 0 L 3.203125 -68.890625 L 19.671875 -68.890625 L 19.671875 0 Z M 3.203125 0 "/></g></g></g><g fill="#000000" fill-opacity="1"><g transform="translate(113.43459, 224.624971)"><g><path d="M 42.8125 0 L 26.34375 0 L 19.390625 -19.390625 L 12.796875 0 L 0.375 0 L 12.984375 -36.984375 L 1.5 -68.984375 L 18.25 -68.984375 L 24.1875 -52.234375 L 30.015625 -68.984375 L 42.25 -68.984375 L 30.390625 -34.921875 Z M 42.8125 0 "/></g></g></g><g fill="#000000" fill-opacity="1"><g transform="translate(151.451231, 224.624971)"><g><path d="M 3.296875 -68.890625 L 19.765625 -68.890625 L 19.765625 -60.140625 C 20.453125 -62.960938 21.640625 -65.25 23.328125 -67 C 25.023438 -68.757812 27.285156 -69.640625 30.109375 -69.640625 C 34.753906 -69.640625 38.191406 -68.210938 40.421875 -65.359375 C 42.648438 -62.503906 43.765625 -58.441406 43.765625 -53.171875 L 43.765625 0 L 27.578125 0 L 27.578125 -51.484375 C 27.578125 -52.984375 27.273438 -54.265625 26.671875 -55.328125 C 26.078125 -56.398438 25.15625 -56.9375 23.90625 -56.9375 C 22.207031 -56.9375 21.09375 -56.164062 20.5625 -54.625 C 20.03125 -53.09375 19.765625 -51.039062 19.765625 -48.46875 L 19.765625 0 L 3.296875 0 Z M 3.296875 -68.890625 "/></g></g></g><g fill="#000000" fill-opacity="1"><g transform="translate(193.231937, 224.624971)"><g><path d="M 3.203125 -73.5 L 3.203125 -84.984375 L 19.671875 -84.984375 L 19.671875 -73.5 Z M 3.203125 0 L 3.203125 -68.890625 L 19.671875 -68.890625 L 19.671875 0 Z M 3.203125 0 "/></g></g></g><g fill="#000000" fill-opacity="1"><g transform="translate(210.922648, 224.624971)"><g/></g></g><g fill="#000000" fill-opacity="1"><g transform="translate(227.766438, 224.624971)"><g><path d="M 3.578125 -80.84375 L 24.9375 -80.84375 C 31.394531 -80.84375 36.003906 -78.753906 38.765625 -74.578125 C 41.523438 -70.410156 42.90625 -64.3125 42.90625 -56.28125 C 42.90625 -48.25 41.679688 -42.191406 39.234375 -38.109375 C 36.796875 -34.035156 32.40625 -32 26.0625 -32 L 19.484375 -32 L 19.484375 0 L 3.578125 0 Z M 20.421875 -46.578125 C 22.367188 -46.578125 23.796875 -46.9375 24.703125 -47.65625 C 25.609375 -48.382812 26.203125 -49.421875 26.484375 -50.765625 C 26.773438 -52.117188 26.921875 -54.050781 26.921875 -56.5625 C 26.921875 -59.945312 26.539062 -62.390625 25.78125 -63.890625 C 25.03125 -65.398438 23.523438 -66.15625 21.265625 -66.15625 L 19.484375 -66.15625 L 19.484375 -46.578125 Z M 20.421875 -46.578125 "/></g></g></g><g fill="#000000" fill-opacity="1"><g transform="translate(267.006395, 224.624971)"><g><path d="M 22.390625 0.75 C 16.492188 0.75 11.773438 -1.097656 8.234375 -4.796875 C 4.691406 -8.503906 2.921875 -13.585938 2.921875 -20.046875 L 2.921875 -57.3125 C 2.921875 -65.34375 4.519531 -71.394531 7.71875 -75.46875 C 10.914062 -79.550781 15.9375 -81.59375 22.78125 -81.59375 C 28.738281 -81.59375 33.535156 -79.960938 37.171875 -76.703125 C 40.804688 -73.441406 42.625 -68.734375 42.625 -62.578125 L 42.625 -48.65625 L 26.53125 -48.65625 L 26.53125 -60.609375 C 26.53125 -62.929688 26.25 -64.53125 25.6875 -65.40625 C 25.125 -66.28125 24.15625 -66.71875 22.78125 -66.71875 C 21.332031 -66.71875 20.34375 -66.21875 19.8125 -65.21875 C 19.28125 -64.21875 19.015625 -62.742188 19.015625 -60.796875 L 19.015625 -20.234375 C 19.015625 -18.097656 19.328125 -16.539062 19.953125 -15.5625 C 20.578125 -14.59375 21.519531 -14.109375 22.78125 -14.109375 C 25.28125 -14.109375 26.53125 -16.148438 26.53125 -20.234375 L 26.53125 -34.828125 L 42.8125 -34.828125 L 42.8125 -19.578125 C 42.8125 -6.023438 36.003906 0.75 22.390625 0.75 Z M 22.390625 0.75 "/></g></g></g></svg>